<svg width="188" height="27" viewBox="0 0 188 27" fill="none" xmlns="http://www.w3.org/2000/svg">
<path d="M99.5001 26.38H101.084L106.232 9.49596L111.38 26.38H112.964L118.904 6.93996H117.356L112.172 23.788L107.024 6.93996H105.44L100.292 23.788L95.1441 6.93996H93.5601L99.5001 26.38Z" fill="black"/>
<path d="M126.351 26.92C128.067 26.92 129.609 26.566 130.977 25.858C132.345 25.15 133.395 24.142 134.127 22.834V26.38H135.531V14.212C135.531 13.564 135.495 12.898 135.423 12.214C135.351 11.53 135.231 10.948 135.063 10.468C134.631 9.21996 133.815 8.22996 132.615 7.49796C131.415 6.76596 129.915 6.39996 128.115 6.39996C126.063 6.39996 124.365 6.86796 123.021 7.80396C121.689 8.73996 120.807 10.108 120.375 11.908L122.031 12.34C122.811 9.38796 124.815 7.91196 128.043 7.91196C130.251 7.91196 131.805 8.45196 132.705 9.53196C133.605 10.612 134.043 12.244 134.019 14.428C133.371 14.5 132.525 14.596 131.481 14.716C130.449 14.836 129.351 14.98 128.187 15.148C127.023 15.304 125.931 15.484 124.911 15.688C123.987 15.88 123.123 16.192 122.319 16.624C121.515 17.056 120.861 17.65 120.357 18.406C119.865 19.15 119.619 20.092 119.619 21.232C119.619 22.24 119.865 23.176 120.357 24.04C120.849 24.904 121.593 25.6 122.589 26.128C123.585 26.656 124.839 26.92 126.351 26.92ZM126.279 25.408C124.995 25.408 123.981 25.192 123.237 24.76C122.505 24.328 121.983 23.794 121.671 23.158C121.359 22.522 121.203 21.892 121.203 21.268C121.203 20.38 121.413 19.654 121.833 19.09C122.265 18.526 122.793 18.088 123.417 17.776C124.041 17.464 124.647 17.236 125.235 17.092C126.123 16.864 127.107 16.678 128.187 16.534C129.279 16.378 130.341 16.252 131.373 16.156C132.405 16.048 133.287 15.964 134.019 15.904C134.019 16.336 134.013 16.84 134.001 17.416C133.989 17.992 133.947 18.532 133.875 19.036C133.611 21.04 132.807 22.606 131.463 23.734C130.119 24.85 128.391 25.408 126.279 25.408Z" fill="black"/>
<path d="M149.895 26.38V24.94C148.383 25.192 147.159 25.222 146.223 25.03C145.287 24.826 144.603 24.292 144.171 23.428C143.943 22.972 143.817 22.486 143.793 21.97C143.781 21.454 143.775 20.776 143.775 19.936V8.45196H149.895V6.93996H143.775V1.53996H142.263V6.93996H137.691V8.45196H142.263V19.936C142.263 20.776 142.281 21.526 142.317 22.186C142.353 22.834 142.515 23.476 142.803 24.112C143.175 24.928 143.733 25.54 144.477 25.948C145.221 26.344 146.067 26.566 147.015 26.614C147.963 26.674 148.923 26.596 149.895 26.38Z" fill="black"/>
<path d="M160.416 26.92C163.98 26.92 166.584 25.336 168.228 22.168L166.752 21.52C166.164 22.792 165.318 23.758 164.214 24.418C163.11 25.078 161.844 25.408 160.416 25.408C158.028 25.408 156.228 24.61 155.016 23.014C153.804 21.418 153.18 19.3 153.144 16.66C153.168 14.932 153.444 13.414 153.972 12.106C154.5 10.786 155.298 9.75996 156.366 9.02796C157.434 8.28396 158.784 7.91196 160.416 7.91196C161.88 7.91196 163.17 8.25396 164.286 8.93796C165.414 9.62196 166.248 10.588 166.788 11.836L168.228 11.224C167.64 9.72396 166.638 8.54796 165.222 7.69596C163.818 6.83196 162.216 6.39996 160.416 6.39996C157.536 6.39996 155.346 7.32996 153.846 9.18996C152.358 11.05 151.584 13.54 151.524 16.66C151.56 18.688 151.914 20.476 152.586 22.024C153.258 23.56 154.248 24.76 155.556 25.624C156.864 26.488 158.484 26.92 160.416 26.92Z" fill="black"/>
<path d="M171.651 26.38H173.163V15.76C173.163 14.368 173.379 13.084 173.811 11.908C174.243 10.72 174.939 9.77196 175.899 9.06396C176.859 8.34396 178.131 7.98396 179.715 7.98396C181.731 7.98396 183.297 8.64396 184.413 9.96396C185.529 11.272 186.087 13.312 186.087 16.084V26.38H187.599V15.796C187.599 12.916 186.903 10.648 185.511 8.99196C184.119 7.33596 182.187 6.50796 179.715 6.50796C178.347 6.50796 177.075 6.78996 175.899 7.35396C174.723 7.91796 173.775 8.82996 173.055 10.09V0.459961H171.651V26.38Z" fill="black"/>
<path d="M8.676 27C11.22 27 13.212 26.43 14.652 25.29C16.092 24.15 16.812 22.584 16.812 20.592C16.812 19.08 16.344 17.886 15.408 17.01C14.484 16.134 12.912 15.408 10.692 14.832C9.18 14.448 8.052 14.136 7.308 13.896C6.576 13.656 6.09 13.422 5.85 13.194C5.622 12.966 5.508 12.684 5.508 12.348C5.508 11.784 5.778 11.352 6.318 11.052C6.87 10.752 7.596 10.632 8.496 10.692C10.404 10.836 11.448 11.652 11.628 13.14L16.632 12.24C16.38 10.476 15.516 9.078 14.04 8.046C12.564 7.002 10.68 6.48 8.388 6.48C6.036 6.48 4.158 7.032 2.754 8.136C1.35 9.24 0.648 10.728 0.648 12.6C0.648 14.088 1.134 15.264 2.106 16.128C3.078 16.98 4.752 17.712 7.128 18.324C8.532 18.696 9.564 18.996 10.224 19.224C10.896 19.452 11.328 19.686 11.52 19.926C11.712 20.154 11.808 20.46 11.808 20.844C11.808 21.456 11.568 21.936 11.088 22.284C10.608 22.62 9.924 22.788 9.036 22.788C7.956 22.788 7.062 22.53 6.354 22.014C5.658 21.498 5.208 20.784 5.004 19.872L0 20.628C0.324 22.656 1.236 24.228 2.736 25.344C4.248 26.448 6.228 27 8.676 27Z" fill="#DA2B1E"/>
<path d="M23.1244 26.46H26.8684L31.1164 13.788L35.3644 26.46H39.1084L45.0484 7.02H40.2604L36.7324 18.612L33.1504 7.02H29.0824L25.5004 18.612L21.9724 7.02L17.1844 6.984L23.1244 26.46Z" fill="#DA2B1E"/>
<path d="M47.5847 4.32H52.4807V0H47.5847V4.32ZM47.5847 26.46H52.4807V7.02H47.5847V26.46Z" fill="#DA2B1E"/>
<path d="M64.393 27C66.937 27 68.929 26.43 70.369 25.29C71.809 24.15 72.529 22.584 72.529 20.592C72.529 19.08 72.061 17.886 71.125 17.01C70.201 16.134 68.629 15.408 66.409 14.832C64.897 14.448 63.769 14.136 63.025 13.896C62.293 13.656 61.807 13.422 61.567 13.194C61.339 12.966 61.225 12.684 61.225 12.348C61.225 11.784 61.495 11.352 62.035 11.052C62.587 10.752 63.313 10.632 64.213 10.692C66.121 10.836 67.165 11.652 67.345 13.14L72.349 12.24C72.097 10.476 71.233 9.078 69.757 8.046C68.281 7.002 66.397 6.48 64.105 6.48C61.753 6.48 59.875 7.032 58.471 8.136C57.067 9.24 56.365 10.728 56.365 12.6C56.365 14.088 56.851 15.264 57.823 16.128C58.795 16.98 60.469 17.712 62.845 18.324C64.249 18.696 65.281 18.996 65.941 19.224C66.613 19.452 67.045 19.686 67.237 19.926C67.429 20.154 67.525 20.46 67.525 20.844C67.525 21.456 67.285 21.936 66.805 22.284C66.325 22.62 65.641 22.788 64.753 22.788C63.673 22.788 62.779 22.53 62.071 22.014C61.375 21.498 60.925 20.784 60.721 19.872L55.717 20.628C56.041 22.656 56.953 24.228 58.453 25.344C59.965 26.448 61.945 27 64.393 27Z" fill="#DA2B1E"/>
<path d="M83.0005 27C85.5445 27 87.5365 26.43 88.9765 25.29C90.4165 24.15 91.1365 22.584 91.1365 20.592C91.1365 19.08 90.6685 17.886 89.7325 17.01C88.8085 16.134 87.2365 15.408 85.0165 14.832C83.5045 14.448 82.3765 14.136 81.6325 13.896C80.9005 13.656 80.4145 13.422 80.1745 13.194C79.9465 12.966 79.8325 12.684 79.8325 12.348C79.8325 11.784 80.1025 11.352 80.6425 11.052C81.1945 10.752 81.9205 10.632 82.8205 10.692C84.7285 10.836 85.7725 11.652 85.9525 13.14L90.9565 12.24C90.7045 10.476 89.8405 9.078 88.3645 8.046C86.8885 7.002 85.0045 6.48 82.7125 6.48C80.3605 6.48 78.4825 7.032 77.0785 8.136C75.6745 9.24 74.9725 10.728 74.9725 12.6C74.9725 14.088 75.4585 15.264 76.4305 16.128C77.4025 16.98 79.0765 17.712 81.4525 18.324C82.8565 18.696 83.8885 18.996 84.5485 19.224C85.2205 19.452 85.6525 19.686 85.8445 19.926C86.0365 20.154 86.1325 20.46 86.1325 20.844C86.1325 21.456 85.8925 21.936 85.4125 22.284C84.9325 22.62 84.2485 22.788 83.3605 22.788C82.2805 22.788 81.3865 22.53 80.6785 22.014C79.9825 21.498 79.5325 20.784 79.3285 19.872L74.3245 20.628C74.6485 22.656 75.5605 24.228 77.0605 25.344C78.5725 26.448 80.5525 27 83.0005 27Z" fill="#DA2B1E"/>
</svg>
